<?xml version="1.0" encoding="UTF-8" standalone="no"?>
<svg
   xmlns:dc="http://purl.org/dc/elements/1.1/"
   xmlns:cc="http://creativecommons.org/ns#"
   xmlns:rdf="http://www.w3.org/1999/02/22-rdf-syntax-ns#"
   xmlns:svg="http://www.w3.org/2000/svg"
   xmlns="http://www.w3.org/2000/svg"
   xmlns:sodipodi="http://sodipodi.sourceforge.net/DTD/sodipodi-0.dtd"
   xmlns:inkscape="http://www.inkscape.org/namespaces/inkscape"
   width="129.70464mm"
   height="129.70464mm"
   viewBox="0 0 129.70464 129.70464"
   version="1.1"
   id="svg8"
   inkscape:version="1.0.2 (e86c870879, 2021-01-15, custom)"
   sodipodi:docname="black_cat_logo_favicon.svg">
  <defs
     id="defs2" />
  <sodipodi:namedview
     id="base"
     pagecolor="#ffffff"
     bordercolor="#666666"
     borderopacity="1.0"
     inkscape:pageopacity="0.0"
     inkscape:pageshadow="2"
     inkscape:zoom="1.4"
     inkscape:cx="107.86166"
     inkscape:cy="141.4545"
     inkscape:document-units="mm"
     inkscape:current-layer="layer1"
     inkscape:document-rotation="0"
     showgrid="false"
     inkscape:window-width="1280"
     inkscape:window-height="961"
     inkscape:window-x="-8"
     inkscape:window-y="-8"
     inkscape:window-maximized="1" />
  <metadata
     id="metadata5">
    <rdf:RDF>
      <cc:Work
         rdf:about="">
        <dc:format>image/svg+xml</dc:format>
        <dc:type
           rdf:resource="http://purl.org/dc/dcmitype/StillImage" />
        <dc:title />
      </cc:Work>
    </rdf:RDF>
  </metadata>
  <g
     inkscape:label="Layer 1"
     inkscape:groupmode="layer"
     id="layer1"
     transform="translate(-41.075191,-84.4776)">
    <path
       style="fill:#000000;stroke-width:0.0587963"
       d="m 97.348608,205.46028 c -3.26058,-0.19225 -6.44805,-0.68169 -9.34861,-1.43551 -2.41647,-0.62801 -4.22907,-1.38419 -4.97632,-2.07601 -0.41376,-0.38306 -0.52113,-0.56736 -0.52113,-0.89447 0,-0.33248 0.11283,-0.52127 0.52492,-0.87826 0.19468,-0.16866 0.47469,-0.48824 0.62224,-0.71019 1.77808,-2.67462 3.41991,-11.38112 4.63994,-24.6053 0.2543,-2.75635 0.52121,-6.1467 0.48664,-6.18127 -0.0141,-0.0141 -0.52532,0.0266 -1.13595,0.0906 -2.2878,0.23972 -2.98312,0.26985 -6.19613,0.26851 -3.36445,-10e-4 -4.14295,-0.0421 -6.82037,-0.35653 -7.82464,-0.9189 -15.21509,-3.4998 -21.07187,-7.35872 -3.062337,-2.01772 -5.842671,-4.56688 -7.831806,-7.18063 -2.421816,-3.1823 -3.887175,-6.57572 -4.440793,-10.2838 -0.155831,-1.04375 -0.215711,-3.48096 -0.113273,-4.61042 0.393315,-4.33657 2.126963,-8.68302 5.159774,-12.93613 2.219762,-3.11291 5.054203,-6.08329 8.754788,-9.17464 l 0.88854,-0.74225 0.10067,-0.4007 c 0.0554,-0.22039 1.3295,-5.44102 2.8314,-11.6014 1.5019,-6.160394 2.73687,-11.220461 2.74436,-11.244601 0.007,-0.0242 2.01095,3.372737 4.45212,7.548631 2.44117,4.17589 4.46822,7.63318 4.50454,7.68286 0.0588,0.0805 0.40546,0.0538 3.17563,-0.24473 8.78643,-0.94671 13.52762,-1.34722 18.54361,-1.56647 1.71511,-0.075 6.29188,-0.0744 7.761112,8.8e-4 4.92442,0.25245 8.94869,0.97395 13.16183,2.35975 0.59356,0.19523 1.09979,0.3326 1.12495,0.30527 0.0252,-0.0273 1.95893,-3.53492 4.29725,-7.79463 2.33831,-4.259724 4.25807,-7.738351 4.26612,-7.730301 0.008,0.008 1.03443,5.245817 2.28083,11.639491 l 2.26618,11.62484 0.24878,0.22119 c 2.4955,2.21885 4.07608,3.89858 5.72384,6.08293 1.94754,2.58174 3.3992,5.28149 4.37711,8.14044 1.71864,5.02442 1.77473,10.15986 0.16529,15.13139 -0.83832,2.58955 -2.2512,5.27273 -3.97593,7.55062 -1.69441,2.23785 -4.00748,4.51898 -6.36079,6.27294 -6.33368,4.72061 -14.62702,7.64621 -24.13588,8.51429 -1.16752,0.10658 -3.22887,0.23947 -3.719847,0.2398 h -0.192085 l 0.152225,0.30039 c 0.497087,0.98098 1.597087,2.7068 4.174407,6.54938 1.10619,1.64924 2.32302,3.48809 2.70407,4.08635 4.05042,6.35916 5.90146,10.65248 6.27843,14.56219 l 0.069,0.71568 1.11712,-0.28092 c 6.98939,-1.75763 12.49987,-5.06209 15.84871,-9.50399 1.0326,-1.36962 1.82659,-2.77344 2.65787,-4.69921 1.48457,-3.43922 2.2993,-6.70142 2.70192,-10.81852 0.10656,-1.08972 0.0996,-5.88051 -0.0113,-7.79051 -0.11806,-2.03304 -0.11067,-3.92175 0.0181,-4.63199 0.16344,-0.90127 0.79416,-2.52124 1.64181,-4.21686 1.92235,-3.84545 4.36473,-6.61535 7.24885,-8.22097 1.09766,-0.61107 2.37519,-1.05456 3.79009,-1.3157 0.43488,-0.0803 0.86453,-0.10242 1.94028,-0.10003 1.22462,0.003 1.47865,0.0205 2.23426,0.15669 2.78817,0.50241 5.60405,1.74601 8.76065,3.86904 2.53946,1.70796 4.48236,3.44441 6.09323,5.44577 1.14139,1.41808 2.30205,3.42972 2.87221,4.97807 1.91406,5.19796 0.46995,10.43601 -3.54181,12.84683 -1.33318,0.80115 -4.08866,1.70364 -6.57016,2.15188 -2.72688,0.49257 -5.59633,0.61368 -6.89754,0.29113 -0.7063,-0.17508 -0.95177,-0.36883 -0.95177,-0.75122 0,-0.52745 0.86078,-1.05046 3.11621,-1.89338 6.46315,-2.41547 9.744,-4.88226 10.43381,-7.84491 0.11742,-0.5043 0.11631,-1.5853 -0.002,-2.16325 -0.47614,-2.32164 -2.47196,-4.82396 -6.44907,-8.0857 -2.96148,-2.42879 -5.18198,-3.69573 -7.14335,-4.07574 -0.68265,-0.13226 -1.77146,-0.12956 -2.42482,0.006 -1.71412,0.35566 -3.44732,1.34977 -5.82084,3.33867 -1.67441,1.40308 -2.43476,2.46076 -2.9903,4.15965 -0.37909,1.1593 -0.56608,2.34058 -0.66339,4.19082 -0.0678,1.28913 -0.0502,2.23119 0.13439,7.20723 0.068,1.83261 0.0352,4.76324 -0.0671,6.00565 -0.47391,5.75129 -2.15223,10.15272 -5.36953,14.08172 -2.1883,2.67252 -6.18664,6.00028 -9.85882,8.20549 -4.05643,2.43596 -8.33776,3.81848 -11.82492,3.81848 h -0.80134 l -0.33788,0.60266 c -0.18583,0.33147 -0.51879,0.84342 -0.7399,1.13769 -0.4657,0.61976 -1.53805,1.67022 -2.12784,2.08441 -1.50208,1.05487 -3.97859,1.7163 -7.24567,1.93517 -0.99689,0.0668 -3.263612,0.0659 -4.409722,-0.002 z m -30.32054,-55.99965 c 0.36581,-0.0199 0.88175,-0.0744 1.14653,-0.12099 0.26478,-0.0466 0.71121,-0.0848 0.99206,-0.0848 0.28085,-5e-5 0.58165,-0.0271 0.66845,-0.0601 0.0868,-0.033 0.39386,-0.0844 0.68236,-0.11426 0.4879,-0.0505 0.58036,-0.0833 1.32378,-0.4693 4.20944,-2.18587 7.85451,-5.62738 12.00135,-11.33114 l 0.47724,-0.65641 -0.86965,-1.31326 c -4.32085,-6.52497 -8.43137,-10.70802 -12.50112,-12.7217 -0.81417,-0.40285 -2.08005,-0.91288 -2.25464,-0.90841 -0.0211,5.3e-4 0.1809,0.11873 0.44895,0.26265 0.78122,0.41944 1.34556,0.83816 2.0616,1.52966 2.17024,2.09583 3.5683,5.13982 4.10465,8.93703 0.15176,1.07444 0.15305,4.02764 0.002,5.05649 -0.56545,3.85681 -1.96136,6.87978 -4.14441,8.97513 -1.59316,1.52915 -3.33513,2.28452 -5.26784,2.28427 -4.24898,-5.8e-4 -7.94666,-3.97144 -9.17062,-9.84829 -0.29226,-1.40327 -0.36142,-2.16401 -0.36081,-3.96875 6e-4,-1.79525 0.0628,-2.46837 0.36155,-3.90996 0.98785,-4.76743 3.65357,-8.38414 7.01682,-9.52005 0.51692,-0.17458 0.48312,-0.18534 -0.1846,-0.0587 -1.72398,0.32685 -3.99381,1.43798 -5.66216,2.77174 -2.45237,1.96056 -4.25933,4.04267 -7.616848,8.77673 -0.722452,1.01864 -1.485522,2.0764 -1.695712,2.35056 l -0.382162,0.49848 0.342267,0.64805 c 3.276845,6.20437 7.773555,10.05076 14.082085,12.04553 1.53364,0.48494 3.48228,1.02655 3.61597,1.00503 0.0647,-0.0104 0.41689,-0.0353 0.7827,-0.0552 z m 51.655092,-0.0869 c 0.43795,-0.0713 1.97696,-0.81337 3.18351,-1.53497 3.48064,-2.08169 6.61196,-5.15465 10.24014,-10.04931 0.41948,-0.56592 0.7831,-1.06329 0.80805,-1.10528 0.05,-0.0841 -1.46253,-2.38868 -2.51086,-3.82578 -3.80461,-5.21549 -7.41012,-8.63399 -10.88919,-10.32435 -1.29007,-0.62681 -2.65502,-1.08303 -1.68315,-0.56258 0.96313,0.51578 1.80821,1.19125 2.57682,2.05965 2.98769,3.37561 4.31574,8.88597 3.42217,14.19931 -0.75421,4.48467 -3.05373,8.14798 -6.10268,9.72208 -2.43174,1.25544 -5.25743,0.97753 -7.5704,-0.74456 -4.90474,-3.65175 -6.65424,-12.5392 -3.81583,-19.38447 1.30905,-3.15697 3.46154,-5.42921 5.99346,-6.3269 0.40784,-0.1446 0.43855,-0.16412 0.21225,-0.13496 -0.4304,0.0555 -1.36887,0.30452 -1.98409,0.52652 -1.9779,0.71374 -4.11735,2.18044 -6.1298,4.2023 -1.54581,1.55304 -2.94993,3.28707 -5.014642,6.1929 -0.68594,0.96537 -1.54192,2.15573 -1.90218,2.64523 l -0.65503,0.89002 0.2278,0.45305 c 0.12528,0.24918 0.42249,0.79184 0.66046,1.20592 2.484402,4.32296 5.672542,7.44432 9.682202,9.47941 1.68197,0.85367 3.04529,1.35717 5.83447,2.15477 l 1.30929,0.37441 1.88148,-0.0282 c 1.03481,-0.0155 2.0364,-0.0534 2.22575,-0.0842 z"
       id="path44" />
    <path
       style="fill:#ffcc00;fill-rule:evenodd;stroke:none;stroke-width:1.16673"
       d="m 257.74024,238.68297 c -9.89735,-4.25852 -18.04775,-9.60226 -25.62812,-16.80287 -6.85225,-6.50896 -15.31397,-17.51191 -18.96617,-24.66209 l -1.57856,-3.09046 9.27029,-12.73787 c 14.92662,-20.50998 25.34564,-31.14936 35.73663,-36.49248 4.92759,-2.5338 4.90534,-2.06488 -0.14149,2.98195 -5.41344,5.41345 -11.89618,18.17287 -13.80718,27.17551 -1.78123,8.39127 -1.54016,24.80604 0.48787,33.22061 3.08749,12.81036 11.44141,25.66977 20.10937,30.95487 4.47285,2.72721 1.41915,2.42246 -5.48264,-0.54717 z"
       id="path16"
       transform="matrix(0.26458333,0,0,0.26458333,41.075191,84.4776)" />
    <path
       style="fill:#ffcc00;fill-rule:evenodd;stroke:none;stroke-width:1.16673"
       d="m 274.57286,244.33623 c -1.38917,-0.54262 0.0165,-0.94408 4.59134,-1.3113 10.26653,-0.8241 18.26142,-5.83158 24.63043,-15.4269 14.29141,-21.53092 13.65751,-55.87028 -1.39951,-75.81315 -2.29201,-3.03576 -3.80353,-5.51956 -3.35892,-5.51956 1.39238,0 8.59784,5.14563 15.04931,10.74715 7.13189,6.1923 19.18102,20.4918 27.07362,32.13007 l 5.44356,8.02696 -6.16101,7.96415 c -13.66486,17.66418 -26.5245,29.27827 -40.45405,36.5358 -6.31494,3.2902 -7.58348,3.58487 -15.15229,3.51982 -4.54319,-0.0391 -9.16131,-0.42292 -10.26248,-0.85304 z"
       id="path18"
       transform="matrix(0.26458333,0,0,0.26458333,41.075191,84.4776)" />
    <path
       style="fill:#ffcc00;fill-rule:evenodd;stroke:none;stroke-width:0.291682"
       d="m 269.37765,243.11851 c -2.22234,-0.68007 -4.49518,-1.40593 -5.05076,-1.61302 l -1.01016,-0.37651 1.07329,-0.0178 c 0.59031,-0.01 1.07329,-0.1232 1.07329,-0.25203 0,-0.12883 -0.36934,-0.52531 -0.82075,-0.88108 -1.08068,-0.8517 -0.76113,-0.82085 1.06954,0.10328 3.20753,1.61915 7.61601,2.75185 10.94824,2.81299 l 1.80868,0.0332 -1.68718,0.1968 c -2.15051,0.25083 -2.73224,0.44038 -2.73224,0.89026 0,0.51335 -0.17749,0.47931 -4.67195,-0.89608 z"
       id="path20"
       transform="matrix(0.26458333,0,0,0.26458333,41.075191,84.4776)" />
    <path
       style="fill:#ffcc00;fill-rule:evenodd;stroke:none;stroke-width:0.291682"
       d="m 252.33132,146.89742 c 0,-0.26887 5.11846,-3.10763 7.61692,-4.22444 2.40872,-1.07669 7.43554,-2.72862 8.3032,-2.72862 0.18299,0 -0.90929,0.62245 -2.42727,1.38322 -1.51799,0.76078 -3.59791,2.01575 -4.62205,2.78884 -1.02413,0.77309 -1.90353,1.36416 -1.95421,1.31348 -0.0507,-0.0507 0.19064,-0.47541 0.53625,-0.94386 1.18004,-1.59945 0.76571,-1.64308 -2.16289,-0.22774 -1.17327,0.56702 -2.77312,1.41934 -3.55521,1.89404 -1.38077,0.83806 -1.73474,0.9901 -1.73474,0.74508 z"
       id="path22"
       transform="matrix(0.26458333,0,0,0.26458333,41.075191,84.4776)" />
    <path
       style="fill:#ffcc00;fill-rule:evenodd;stroke:none;stroke-width:0.291682"
       d="m 342.35734,190.65674 c -6.96477,-10.28104 -15.76596,-21.24336 -23.35595,-29.09098 -6.6395,-6.86487 -19.05997,-16.28267 -20.10106,-15.24158 -0.17056,0.17057 1.7896,3.61235 2.20272,3.86767 0.12137,0.075 0.22067,0.26002 0.22067,0.41114 0,0.15111 -0.92576,-0.71472 -2.05724,-1.92408 -2.18212,-2.3323 -5.21259,-4.81547 -7.59176,-6.22071 -3.16861,-1.87151 -0.27473,-0.88924 4.85078,1.64651 7.38344,3.6528 13.61253,8.25828 21.17793,15.6579 6.4151,6.27451 11.35206,11.9753 17.79928,20.55312 3.61257,4.80641 10.1372,14.39157 9.9344,14.59437 -0.065,0.0651 -1.45094,-1.84897 -3.07977,-4.25336 z"
       id="path24"
       transform="matrix(0.26458333,0,0,0.26458333,41.075191,84.4776)" />
    <path
       style="fill:#ffcc00;fill-rule:evenodd;stroke:none;stroke-width:0.291682"
       d="M 92.078031,244.97335 C 82.221536,242.34033 75.105236,239.84166 68.844523,236.81562 51.729802,228.54343 39.35228,216.36722 29.086154,197.7039 l -1.974808,-3.59011 0.475029,-0.63134 c 0.261266,-0.34724 2.76654,-3.81333 5.567276,-7.70242 11.885997,-16.50483 16.38757,-22.14767 22.669922,-28.41732 6.732439,-6.71883 11.760345,-10.44523 18.576789,-13.76808 3.690375,-1.79897 7.3549,-3.18103 9.362078,-3.53087 0.784879,-0.1368 0.464736,0.0903 -1.533396,1.08792 -8.739325,4.36316 -15.633719,12.65543 -20.193184,24.28744 -2.021091,5.15617 -3.763349,12.93482 -4.174617,18.63838 -1.010956,14.0202 1.072211,25.97485 6.457544,37.05787 4.898341,10.08079 12.676598,17.58162 21.193253,20.43735 11.083318,3.71635 22.6482,-0.17515 31.36777,-10.55504 5.70747,-6.79425 9.62545,-15.41235 11.7836,-25.91954 1.08109,-5.26343 1.2313,-7.42825 1.10741,-15.95949 -0.12727,-8.76366 -0.41882,-11.01521 -2.32409,-17.94807 -3.38572,-12.31994 -10.23741,-22.60395 -18.81576,-28.24142 -1.03529,-0.68037 -1.75562,-1.23703 -1.60074,-1.23703 1.02145,0 8.70193,3.84209 12.21781,6.11185 13.70708,8.84894 27.00354,23.53676 42.52741,46.97758 l 1.45895,2.203 -0.45605,0.70119 c -0.86908,1.33625 -6.52934,8.79719 -9.05765,11.93914 -12.41615,15.42963 -24.9865,26.28424 -38.00383,32.81665 -2.07169,1.03962 -2.92605,1.30954 -5.5619,1.75722 -1.71282,0.29091 -3.67806,0.52893 -4.36719,0.52893 -0.68913,0 -2.63522,0.16091 -4.32463,0.35758 -5.905078,0.68742 -6.340883,0.6813 -9.385119,-0.13192 z"
       id="path26"
       transform="matrix(0.26458333,0,0,0.26458333,41.075191,84.4776)" />
    <path
       style="fill:#ffcc00;fill-rule:evenodd;stroke:none;stroke-width:0.20625"
       d="m 84.111665,140.02679 c -0.233046,-0.14944 -0.230145,-0.17212 0.02232,-0.1745 0.159598,-0.002 0.561384,-0.0483 0.892857,-0.10391 0.416806,-0.07 0.520069,-0.0491 0.334822,0.0677 -0.479471,0.30226 -0.976561,0.38606 -1.25,0.21072 z"
       id="path28"
       transform="matrix(0.26458333,0,0,0.26458333,41.075191,84.4776)" />
    <path
       style="fill:#ffcc00;fill-rule:evenodd;stroke:none;stroke-width:0.20625"
       d=""
       id="path30"
       transform="matrix(0.26458333,0,0,0.26458333,41.075191,84.4776)" />
    <path
       style="fill:#ffcc00;fill-rule:evenodd;stroke:none;stroke-width:0.20625"
       d=""
       id="path32"
       transform="matrix(0.26458333,0,0,0.26458333,41.075191,84.4776)" />
    <path
       style="fill:#ffcc00;fill-rule:evenodd;stroke:none;stroke-width:0.20625"
       d=""
       id="path34"
       transform="matrix(0.26458333,0,0,0.26458333,41.075191,84.4776)" />
    <path
       style="fill:#ffcc00;fill-rule:evenodd;stroke:none;stroke-width:0.20625"
       d=""
       id="path36"
       transform="matrix(0.26458333,0,0,0.26458333,41.075191,84.4776)" />
    <path
       style="fill:#ffcc00;fill-rule:evenodd;stroke:none;stroke-width:0.20625"
       d=""
       id="path40"
       transform="matrix(0.26458333,0,0,0.26458333,41.075191,84.4776)" />
    <path
       style="fill:#ffcc00;fill-rule:evenodd;stroke:none;stroke-width:0.20625"
       d=""
       id="path42"
       transform="matrix(0.26458333,0,0,0.26458333,41.075191,84.4776)" />
    <path
       id="path45"
       style="fill:#ffcc00;fill-rule:evenodd;stroke:none;stroke-width:0.20625"
       d="M 83.490234 140.25781 C 83.446963 140.21454 82.704825 140.39849 81.841797 140.66602 C 77.21672 142.09975 70.60684 145.41834 66.253906 148.49414 C 60.187077 152.78098 53.153631 159.72727 46.597656 167.9043 C 43.114295 172.24897 27.326172 193.76378 27.326172 194.16602 C 27.326172 194.38035 30.332722 199.7556 31.927734 202.39258 C 37.924341 212.30657 44.930812 220.42717 53.041016 226.86523 C 60.687686 232.93533 70.374865 238.03831 80.902344 241.54102 C 85.951654 243.22103 92.601351 245.11693 94.417969 245.39453 C 95.54518 245.56678 96.686222 245.5162 100.36133 245.13086 C 101.68723 244.99184 103.89648 244.79515 105.27148 244.69336 C 108.61324 244.44598 111.92108 243.87576 113.625 243.25391 C 115.17013 242.69001 119.05145 240.63633 121.95703 238.8457 C 133.09998 231.97858 144.34359 221.42377 155.01562 207.81445 C 157.62788 204.48323 161.86487 198.86243 162.58398 197.77344 L 163.08203 197.01953 L 162.48438 196.07812 C 161.1985 194.05614 156.794 187.64116 154.35938 184.24414 C 141.56659 166.39462 128.90299 153.55919 117.50391 146.88867 C 114.11586 144.90605 108.2626 142.01172 107.64258 142.01172 C 107.53128 142.01172 108.02141 142.40998 108.73047 142.89844 C 118.10028 149.35321 124.68272 159.70791 128.12305 173.4043 C 129.59219 179.25314 129.90555 183.02646 129.77539 193.29883 C 129.6945 199.68293 129.65733 200.30703 129.2207 202.72461 C 127.19596 213.9355 123.27071 223.22035 117.55664 230.31836 C 115.67367 232.65739 112.11302 236.0794 109.99414 237.58594 C 103.06273 242.51426 95.108995 244.14073 87.435547 242.20117 C 78.28442 239.88809 70.066577 232.57691 64.642578 221.92188 C 59.303319 211.43327 56.887316 199.00499 57.666016 186.0293 C 58.544964 171.38313 63.644154 157.9981 71.724609 149.12891 C 74.762531 145.79445 77.816876 143.41303 81.751953 141.30859 C 82.750803 140.77441 83.533504 140.30111 83.490234 140.25781 z "
       transform="matrix(0.26458333,0,0,0.26458333,41.075191,84.4776)" />
    <path
       style="fill:#ffcc00;fill-rule:evenodd;stroke:none;stroke-width:0.825"
       d="m 257.66533,238.22099 c -17.45426,-7.39116 -33.53987,-22.38024 -44.12544,-41.11746 l -1.65101,-2.9224 10.62251,-14.22046 c 11.70324,-15.66725 22.87073,-27.59936 30.28244,-32.35585 2.51627,-1.61482 4.87394,-2.93603 5.23928,-2.93603 0.36534,0 -0.68013,1.52678 -2.32327,3.39286 -5.74334,6.52256 -11.96041,19.24843 -13.49889,27.63118 -1.13299,6.17338 -0.97375,24.255 0.2709,30.76021 2.35458,12.30631 10.56527,26.0605 19.30839,32.34461 2.85878,2.05474 1.70985,1.89413 -4.12491,-0.57666 z"
       id="path50"
       transform="matrix(0.26458333,0,0,0.26458333,41.075191,84.4776)" />
  </g>
</svg>
