<?xml version="1.0" encoding="UTF-8" standalone="no"?>
<svg
   xmlns:dc="http://purl.org/dc/elements/1.1/"
   xmlns:cc="http://creativecommons.org/ns#"
   xmlns:rdf="http://www.w3.org/1999/02/22-rdf-syntax-ns#"
   xmlns:svg="http://www.w3.org/2000/svg"
   xmlns="http://www.w3.org/2000/svg"
   xmlns:sodipodi="http://sodipodi.sourceforge.net/DTD/sodipodi-0.dtd"
   xmlns:inkscape="http://www.inkscape.org/namespaces/inkscape"
   viewBox="0 0 122.52 122.523"
   version="1.1"
   id="svg14"
   sodipodi:docname="logo_wordpress_blue.svg"
   inkscape:version="1.0.2 (e86c870879, 2021-01-15, custom)">
  <metadata
     id="metadata20">
    <rdf:RDF>
      <cc:Work
         rdf:about="">
        <dc:format>image/svg+xml</dc:format>
        <dc:type
           rdf:resource="http://purl.org/dc/dcmitype/StillImage" />
      </cc:Work>
    </rdf:RDF>
  </metadata>
  <defs
     id="defs18" />
  <sodipodi:namedview
     pagecolor="#ffffff"
     bordercolor="#666666"
     borderopacity="1"
     objecttolerance="10"
     gridtolerance="10"
     guidetolerance="10"
     inkscape:pageopacity="0"
     inkscape:pageshadow="2"
     inkscape:window-width="1280"
     inkscape:window-height="961"
     id="namedview16"
     showgrid="false"
     inkscape:zoom="5.9988736"
     inkscape:cx="61.259998"
     inkscape:cy="61.261501"
     inkscape:window-x="-8"
     inkscape:window-y="-8"
     inkscape:window-maximized="1"
     inkscape:current-layer="svg14" />
  <g
     fill="#21759b"
     id="g12">
    <path
       d="m8.708 61.26c0 20.802 12.089 38.779 29.619 47.298l-25.069-68.686c-2.916 6.536-4.55 13.769-4.55 21.388z"
       id="path2" />
    <path
       d="m96.74 58.608c0-6.495-2.333-10.993-4.334-14.494-2.664-4.329-5.161-7.995-5.161-12.324 0-4.831 3.664-9.328 8.825-9.328.233 0 .454.029.681.042-9.35-8.566-21.807-13.796-35.489-13.796-18.36 0-34.513 9.42-43.91 23.688 1.233.037 2.395.063 3.382.063 5.497 0 14.006-.667 14.006-.667 2.833-.167 3.167 3.994.337 4.329 0 0-2.847.335-6.015.501l19.138 56.925 11.501-34.493-8.188-22.434c-2.83-.166-5.511-.501-5.511-.501-2.832-.166-2.5-4.496.332-4.329 0 0 8.679.667 13.843.667 5.496 0 14.006-.667 14.006-.667 2.835-.167 3.168 3.994.337 4.329 0 0-2.853.335-6.015.501l18.992 56.494 5.242-17.517c2.272-7.269 4.001-12.49 4.001-16.989z"
       id="path4" />
    <path
       d="m62.184 65.857-15.768 45.819c4.708 1.384 9.687 2.141 14.846 2.141 6.12 0 11.989-1.058 17.452-2.979-.141-.225-.269-.464-.374-.724z"
       id="path6" />
    <path
       d="m107.376 36.046c.226 1.674.354 3.471.354 5.404 0 5.333-.996 11.328-3.996 18.824l-16.053 46.413c15.624-9.111 26.133-26.038 26.133-45.426.001-9.137-2.333-17.729-6.438-25.215z"
       id="path8" />
    <path
       d="m61.262 0c-33.779 0-61.262 27.481-61.262 61.26 0 33.783 27.483 61.263 61.262 61.263 33.778 0 61.265-27.48 61.265-61.263-.001-33.779-27.487-61.26-61.265-61.26zm0 119.715c-32.23 0-58.453-26.223-58.453-58.455 0-32.23 26.222-58.451 58.453-58.451 32.229 0 58.45 26.221 58.45 58.451 0 32.232-26.221 58.455-58.45 58.455z"
       id="path10" />
  </g>
  <path
     style="fill:#ffffff;fill-rule:evenodd;stroke-width:0.192536"
     d="M 57.425945,119.50142 C 30.964982,117.72573 8.9125322,98.204604 3.9298659,72.145978 3.045359,67.520135 2.6955695,61.331641 3.0639085,56.825418 4.8727559,34.696152 18.658377,15.778533 39.18987,7.2507821 51.010341,2.3411522 64.721985,1.5632842 77.096183,5.1003392 98.583886,11.242409 114.68081,28.956003 118.66394,50.842879 c 0.70879,3.894723 0.8551,5.677439 0.8551,10.418622 0,4.733017 -0.14506,6.506032 -0.8524,10.418623 -4.4764,24.760752 -24.627764,44.026206 -49.596629,47.416216 -3.992579,0.54207 -7.687255,0.6706 -11.644066,0.40508 z m 8.418247,-5.81482 c 2.230266,-0.20412 4.641328,-0.57015 6.732339,-1.02204 1.543695,-0.33361 6.026727,-1.59482 6.166813,-1.73491 0.03966,-0.0397 -0.05455,-0.35417 -0.209366,-0.69892 C 78.379167,109.88598 74.665575,99.777066 70.281552,87.766477 65.897529,75.755889 62.249434,65.94356 62.174677,65.961302 62.042512,65.992666 46.656693,110.50913 46.481449,111.3672 c -0.08666,0.42431 -0.06089,0.43627 2.052735,0.95284 3.054157,0.74643 5.060802,1.07426 8.725063,1.4254 1.386052,0.13283 6.904025,0.095 8.584945,-0.0588 z M 25.890153,74.203931 C 18.992539,55.304216 13.298868,39.840813 13.237551,39.840813 c -0.200453,0 -1.77403,4.197371 -2.468527,6.58457 -1.4865325,5.109666 -2.0636725,9.223633 -2.0696353,14.752769 -0.00458,4.245039 0.2316241,6.786351 0.9747728,10.487638 3.1140035,15.50944 12.9913525,28.72698 26.9941095,36.12262 0.914762,0.48314 1.685657,0.85598 1.7131,0.82854 0.02744,-0.0275 -5.593605,-15.513306 -12.491218,-34.413019 z m 62.693665,32.038279 c 4.171263,-2.42426 9.48297,-6.96481 12.862432,-10.995043 6.79116,-8.098906 10.77473,-17.302625 12.10565,-27.969129 0.37315,-2.99052 0.36729,-9.258195 -0.0114,-12.164604 -0.80973,-6.21524 -2.34348,-11.472384 -4.91597,-16.850189 -1.08211,-2.262158 -1.44173,-2.71655 -1.23485,-1.560286 0.0709,0.396403 0.12773,2.558579 0.12623,4.804834 -0.002,3.109707 -0.0756,4.561353 -0.30821,6.084475 -0.40803,2.67182 -1.56232,7.169008 -2.52438,9.83518 -0.43009,1.191891 -4.40782,12.631538 -8.839396,25.421439 -4.431581,12.789902 -8.107807,23.385643 -8.169392,23.546083 -0.152001,0.39602 0.01259,0.36836 0.909239,-0.15276 z M 54.00924,76.345855 59.788704,59.007456 56.002018,48.632319 C 53.91934,42.925994 52.075116,37.878146 51.903742,37.414881 L 51.592153,36.57258 48.58969,36.293132 c -1.79887,-0.167426 -3.193293,-0.378128 -3.478498,-0.525614 -0.972326,-0.502809 -1.270579,-2.017952 -0.598993,-3.042924 0.559197,-0.85344 1.026558,-0.910951 5.115157,-0.629455 7.745874,0.533295 14.917936,0.500179 22.767316,-0.105126 2.012246,-0.155175 2.273197,-0.143121 2.833865,0.130914 1.243442,0.607748 1.519807,2.180968 0.566922,3.227211 -0.542412,0.595553 -1.10878,0.716124 -4.700281,1.000618 -1.4211,0.112569 -2.604852,0.221478 -2.630562,0.24202 -0.03411,0.02726 18.338586,54.890144 18.890426,56.408872 0.04641,0.127728 0.119244,0.197371 0.161852,0.154763 0.04261,-0.04261 1.383769,-4.422914 2.980357,-9.734016 1.596588,-5.311101 3.253355,-10.781758 3.681708,-12.157016 1.914946,-6.148098 2.585118,-9.501702 2.586722,-12.944202 0.0025,-5.346045 -1.447895,-9.611704 -5.574423,-16.394639 -2.874422,-4.724801 -3.779298,-7.090477 -3.793858,-9.918529 -0.0098,-1.906026 0.197157,-2.857062 0.973615,-4.473805 1.404308,-2.924054 4.642275,-5.011059 7.796369,-5.025085 l 0.650953,-0.0029 -0.317558,-0.354292 C 95.816583,21.386593 92.55994,18.888295 90.182095,17.302624 87.295068,15.377403 82.827849,13.094448 79.676444,11.933752 67.505714,7.4511409 53.993247,7.573546 42.006384,12.274993 c -7.392383,2.899415 -14.494285,7.802801 -19.706755,13.606191 -1.60725,1.789458 -5.043226,6.232408 -5.04631,6.52522 -0.0023,0.213707 10.006244,-0.0017 14.305318,-0.307894 3.83176,-0.272905 4.236175,-0.228647 4.919167,0.538346 0.45322,0.508962 0.556585,1.635192 0.209266,2.280123 -0.553371,1.027546 -0.784671,1.079807 -7.207091,1.628447 l -0.524151,0.04478 9.593878,28.547026 c 5.276633,15.700864 9.613272,28.547026 9.636975,28.547026 0.0237,0 2.643854,-7.80228 5.822559,-17.3384 z"
     id="path22" />
</svg>
