<?xml version="1.0" encoding="UTF-8" standalone="no"?>
<svg
   xmlns:dc="http://purl.org/dc/elements/1.1/"
   xmlns:cc="http://creativecommons.org/ns#"
   xmlns:rdf="http://www.w3.org/1999/02/22-rdf-syntax-ns#"
   xmlns:svg="http://www.w3.org/2000/svg"
   xmlns="http://www.w3.org/2000/svg"
   xmlns:sodipodi="http://sodipodi.sourceforge.net/DTD/sodipodi-0.dtd"
   xmlns:inkscape="http://www.inkscape.org/namespaces/inkscape"
   width="145.75"
   height="157.82767"
   id="svg2"
   version="1.1"
   inkscape:version="1.0.2 (e86c870879, 2021-01-15, custom)"
   sodipodi:docname="logo_javascript.svg">
  <defs
     id="defs4" />
  <sodipodi:namedview
     id="base"
     pagecolor="#ffffff"
     bordercolor="#666666"
     borderopacity="1.0"
     inkscape:pageopacity="0.0"
     inkscape:pageshadow="2"
     inkscape:zoom="3.119824"
     inkscape:cx="50.16802"
     inkscape:cy="61.634426"
     inkscape:document-units="px"
     inkscape:current-layer="layer1"
     showgrid="false"
     inkscape:window-width="1280"
     inkscape:window-height="961"
     inkscape:window-x="-8"
     inkscape:window-y="-8"
     inkscape:window-maximized="1"
     fit-margin-top="0"
     fit-margin-left="0"
     fit-margin-right="0"
     fit-margin-bottom="0"
     inkscape:document-rotation="0" />
  <metadata
     id="metadata7">
    <rdf:RDF>
      <cc:Work
         rdf:about="">
        <dc:format>image/svg+xml</dc:format>
        <dc:type
           rdf:resource="http://purl.org/dc/dcmitype/StillImage" />
        <dc:title></dc:title>
      </cc:Work>
    </rdf:RDF>
  </metadata>
  <g
     inkscape:label="Layer 1"
     inkscape:groupmode="layer"
     id="layer1"
     transform="translate(-326.59295,-168.33349)">
    <g
       transform="matrix(1.25,0,0,1.25,-205.08205,135.70849)"
       id="g3768">
      <path
         style="fill:#d6ba32"
         inkscape:connector-curvature="0"
         d="m 439.03,51.2 c 9.97,-0.42 19.96,0.12 29.94,-0.05 11.01,-0.35 22.01,-0.06 33.03,-0.02 8.74,0.02 17.48,-0.04 26.22,0.03 -2.75,30.33 -5.52,60.66 -8.07,91.01 -11.71,3.33 -23.43,6.61 -35.14,9.92 -1.5,0.62 -3.04,0.04 -4.48,-0.35 -11.13,-3.2 -22.26,-6.37 -33.41,-9.45 -2.9,-30.34 -5.63,-60.71 -8.09,-91.09 m 44.78,7.91 c -0.41,14.96 -0.06,29.92 -0.18,44.88 0.11,13.68 -0.2,27.37 0.16,41.05 9.84,-2.32 19.55,-5.17 29.26,-7.98 2.44,-25.97 4.82,-51.94 6.86,-77.94 -12.03,-0.12 -24.07,0.02 -36.1,-0.01 m -12.52,58.42 c -5.78,-1.58 -11.49,-3.4 -17.35,-4.65 -0.17,3.48 -0.11,6.96 0.29,10.42 8.58,2.09 16.98,4.84 25.57,6.89 0.06,-19.81 -0.03,-39.63 0.04,-59.44 -2.8,-0.07 -5.6,-0.11 -8.4,-0.17 -0.32,15.64 -0.02,31.3 -0.15,46.95 z"
         id="path3770" />
    </g>
    <g
       transform="matrix(1.25,0,0,1.25,-205.08205,135.70849)"
       id="g3796">
      <path
         style="fill:#ffda3e"
         inkscape:connector-curvature="0"
         d="m 483.81,59.11 c 12.03,0.03 24.07,-0.11 36.1,0.01 -2.04,26 -4.42,51.97 -6.86,77.94 -9.71,2.81 -19.42,5.66 -29.26,7.98 -0.36,-13.68 -0.05,-27.37 -0.16,-41.05 0.12,-14.96 -0.23,-29.92 0.18,-44.88 m 3.37,11.63 c 0.04,12.88 0.05,25.77 0,38.65 5.88,-0.95 11.74,-2.04 17.6,-3.11 -0.09,3 -0.21,6 -0.34,9 -5.71,1.52 -11.41,3.09 -17.15,4.5 -0.09,3.46 -0.1,6.92 -0.07,10.39 7.23,-1.62 14.35,-3.66 21.53,-5.47 0.9,-0.42 2.63,-0.37 2.55,-1.78 0.87,-9.26 1.41,-18.56 2.25,-27.84 -5.95,0.49 -11.84,1.49 -17.79,1.9 -0.05,-5.26 -0.06,-10.52 0.02,-15.78 6.26,0 12.51,0 18.77,0.01 0.4,-3.51 0.75,-7.03 1.02,-10.55 -9.46,0.04 -18.93,-0.09 -28.39,0.08 z"
         id="path3798" />
    </g>
    <path
       id="path3806"
       d="m 384.03045,282.62099 c 0.1625,-19.5625 -0.2125,-39.1375 0.1875,-58.6875 3.5,0.075 7,0.125 10.5,0.2125 -0.0875,24.7625 0.025,49.5375 -0.05,74.3 -10.7375,-2.5625 -21.2375,-6 -31.9625,-8.6125 -0.5,-4.325 -0.575,-8.675 -0.3625,-13.025 7.325,1.5625 14.4625,3.8375 21.6875,5.8125 z"
       inkscape:connector-curvature="0"
       style="fill:#ebebeb" />
    <path
       inkscape:connector-curvature="0"
       id="path76"
       d="m 384.31019,186.00758 v -3.58841 h 3.7727 3.7727 v -6.98795 -6.98796 h 2.65486 2.65486 v 10.57637 10.57636 h -6.42756 -6.42756 z m 15.37026,0.75546 v -2.83296 h 3.49324 c 1.92128,0 3.49324,-0.096 3.49324,-0.21332 0,-0.11734 -1.57196,-2.51609 -3.49324,-5.33056 l -3.49324,-5.11722 v -2.41286 -2.41286 h 7.26594 7.26594 v 2.82133 2.82133 l -3.41104,0.10605 -3.41104,0.10606 3.55077,5.16852 3.55077,5.16853 v 2.48045 2.48046 h -7.40567 -7.40567 z"
       style="fill:#0e0e0f;stroke-width:0.324898" />
  </g>
</svg>
